<?xml version="1.0" standalone="no"?>
<!DOCTYPE svg PUBLIC "-//W3C//DTD SVG 20010904//EN"
 "http://www.w3.org/TR/2001/REC-SVG-20010904/DTD/svg10.dtd">
<svg version="1.0" xmlns="http://www.w3.org/2000/svg"
 width="900.000000pt" height="759.000000pt" viewBox="0 0 900.000000 759.000000"
 preserveAspectRatio="xMidYMid meet">
<metadata>
Created by potrace 1.10, written by Peter Selinger 2001-2011
</metadata>
<g transform="translate(0.000000,759.000000) scale(0.100000,-0.100000)"
fill="#000000" stroke="none">
<path d="M0 3795 l0 -3795 4500 0 4500 0 0 3795 0 3795 -4500 0 -4500 0 0
-3795z m8940 3755 c5 0 2 -7521 -3 -7527 -2 -1 -2001 -3 -4443 -3 l-4439 0 -3
3757 c-1 2067 0 3763 2 3768 2 7 1490 9 4442 8 2442 -2 4441 -3 4444 -3z"/>
<path d="M4510 6929 c-30 -21 -58 -38 -63 -39 -4 0 -24 -11 -45 -23 -51 -32
-376 -221 -507 -295 -11 -6 -66 -38 -123 -72 -56 -33 -104 -60 -106 -60 -4 0
-249 -143 -276 -160 -8 -6 -22 -13 -30 -17 -13 -6 -138 -78 -180 -104 -8 -5
-35 -20 -60 -34 -25 -14 -52 -29 -60 -34 -62 -38 -172 -101 -176 -101 -4 0
-26 -13 -51 -30 -24 -16 -46 -30 -48 -30 -3 0 -39 -21 -82 -46 -43 -25 -100
-59 -128 -74 -27 -15 -88 -50 -135 -77 l-85 -49 0 -1289 0 -1288 70 -37 c93
-48 151 -81 200 -112 22 -13 65 -39 95 -55 30 -17 90 -52 133 -77 43 -25 80
-46 82 -46 3 0 24 -12 48 -27 23 -15 57 -35 75 -45 17 -10 47 -26 65 -36 17
-10 43 -25 57 -33 32 -21 273 -160 325 -189 39 -21 194 -112 225 -131 8 -5 35
-20 60 -34 25 -14 52 -29 60 -34 123 -75 169 -101 172 -101 3 0 68 -37 144
-81 76 -45 155 -91 174 -102 39 -21 152 -89 198 -119 l29 -18 134 79 c74 44
150 89 169 100 19 12 76 44 125 73 50 28 102 58 117 67 35 21 239 138 303 174
83 47 237 138 277 163 21 13 40 24 43 24 2 0 50 27 106 60 55 33 103 60 105
60 4 0 187 106 224 130 8 5 38 22 65 36 28 15 77 44 111 65 34 22 64 39 68 39
4 0 27 13 51 30 24 16 46 30 49 30 3 0 40 21 83 46 43 25 98 57 123 70 25 13
51 27 58 32 10 7 12 263 12 1288 l0 1279 -27 22 c-16 13 -32 23 -36 23 -5 0
-34 15 -65 34 -80 47 -307 178 -367 212 -27 15 -83 47 -123 71 -41 24 -76 43
-79 43 -2 0 -36 20 -74 45 -38 25 -72 45 -76 45 -3 0 -39 20 -80 45 -40 25
-76 45 -78 45 -3 0 -33 17 -67 38 -35 21 -94 56 -133 76 -38 21 -77 45 -86 52
-8 8 -19 14 -22 14 -4 0 -51 26 -104 58 -54 32 -105 61 -113 65 -8 4 -24 13
-35 20 -11 7 -51 30 -90 52 -38 21 -93 54 -122 72 -29 18 -54 33 -57 33 -3 0
-36 18 -73 41 -36 23 -74 44 -82 48 -16 6 -112 63 -159 93 -77 50 -72 49 -132
7z m134 -149 c34 -17 70 -36 81 -43 72 -45 126 -77 132 -77 3 0 38 -20 77 -44
39 -24 98 -58 131 -76 33 -18 83 -47 110 -65 28 -18 66 -40 85 -49 19 -8 80
-42 135 -76 55 -33 114 -67 130 -75 17 -8 75 -41 130 -74 55 -33 134 -78 175
-101 41 -24 89 -52 105 -64 17 -12 56 -35 88 -51 31 -15 57 -32 57 -36 0 -4
12 -10 27 -13 14 -4 45 -20 67 -35 23 -16 73 -46 111 -66 39 -21 84 -48 102
-61 17 -13 37 -24 43 -24 6 0 26 -11 43 -24 18 -13 61 -38 96 -57 106 -55 95
81 98 -1264 2 -1115 2 -1182 -15 -1207 -19 -28 -69 -69 -112 -90 -14 -7 -52
-29 -86 -50 -34 -21 -67 -38 -74 -38 -8 0 -23 -8 -34 -19 -12 -10 -52 -35 -91
-55 -38 -20 -76 -43 -85 -51 -9 -8 -32 -21 -52 -29 -20 -9 -39 -20 -42 -25 -5
-8 -78 -50 -211 -121 -16 -9 -49 -28 -73 -43 -23 -15 -64 -40 -91 -55 -26 -15
-84 -47 -127 -71 -44 -25 -140 -81 -214 -125 -74 -44 -165 -96 -201 -116 -89
-48 -151 -83 -284 -162 -62 -38 -117 -68 -123 -68 -5 0 -15 -7 -22 -15 -7 -8
-19 -15 -27 -15 -8 0 -28 -11 -44 -24 -16 -14 -49 -28 -72 -31 -39 -6 -52 -2
-126 39 -46 25 -87 46 -91 46 -4 0 -15 9 -24 19 -10 11 -45 33 -79 50 -34 18
-96 52 -137 76 -41 25 -95 56 -120 70 -25 14 -63 37 -85 50 -22 13 -51 29 -64
35 -13 6 -44 24 -68 40 -24 17 -48 30 -52 30 -5 0 -56 29 -115 65 -58 35 -137
81 -174 101 -37 20 -74 43 -83 50 -8 8 -19 14 -22 14 -8 0 -372 208 -413 236
-16 11 -40 26 -54 32 -14 7 -47 26 -75 42 -27 17 -68 39 -90 51 -105 55 -217
133 -230 160 -13 25 -15 184 -16 1206 l0 1178 52 47 c29 26 62 51 73 54 12 4
28 12 36 19 16 14 120 73 181 103 41 20 128 72 202 121 29 19 76 45 104 58 29
13 55 29 58 34 4 5 15 9 26 9 11 0 22 7 25 15 3 8 42 33 86 55 43 21 91 48
105 60 14 11 31 20 37 20 6 0 41 19 78 43 37 23 96 60 130 81 35 22 83 51 107
63 24 13 65 36 90 50 25 15 67 38 93 52 26 14 94 54 152 89 57 34 111 62 119
62 7 0 22 9 32 20 27 30 285 170 313 170 8 0 42 -14 76 -30z"/>
<path d="M4500 6576 c-19 -8 -57 -26 -85 -41 -27 -16 -75 -41 -105 -57 -30
-16 -59 -33 -65 -37 -5 -5 -39 -23 -75 -42 -36 -19 -84 -46 -106 -61 -23 -16
-46 -28 -51 -28 -5 0 -25 -12 -44 -26 -35 -26 -153 -95 -257 -149 -31 -17 -68
-37 -82 -46 -35 -22 -138 -83 -180 -107 -19 -10 -87 -50 -150 -87 -63 -37
-139 -81 -169 -97 -30 -16 -70 -41 -90 -54 -20 -13 -40 -24 -45 -24 -5 0 -33
-16 -62 -35 -29 -19 -57 -35 -63 -35 -34 0 -168 -118 -204 -181 l-25 -44 -4
-1015 c-3 -983 -2 -1016 16 -1059 32 -72 100 -134 236 -215 25 -14 52 -30 60
-35 96 -59 254 -147 300 -167 19 -9 44 -24 55 -34 11 -11 47 -33 80 -51 33
-17 67 -37 75 -43 8 -7 42 -26 75 -43 33 -17 89 -49 125 -72 36 -22 88 -52
115 -66 62 -32 95 -51 165 -95 30 -19 71 -42 91 -51 20 -9 39 -21 43 -27 3 -5
32 -22 63 -37 32 -15 81 -42 108 -59 73 -45 102 -61 175 -96 36 -16 77 -37 92
-45 23 -11 40 -12 90 -3 35 6 69 16 77 22 8 6 40 25 72 41 75 39 325 183 367
211 18 13 46 25 62 29 17 4 30 10 30 15 0 5 46 35 103 66 56 32 125 72 152 89
28 18 82 50 121 71 39 22 110 62 158 89 48 28 111 63 139 79 29 15 66 39 84
52 17 13 42 29 55 34 13 6 44 22 69 38 26 15 82 47 125 71 186 104 260 177
276 274 8 51 10 446 5 1507 -2 500 -3 537 -21 568 -27 49 -120 139 -162 157
-19 8 -56 28 -81 45 -25 17 -88 54 -142 82 -53 28 -103 56 -111 63 -17 14 -96
59 -151 86 -19 10 -41 25 -49 33 -7 9 -18 16 -25 16 -6 0 -47 21 -91 48 -43
26 -90 53 -104 60 -14 7 -47 26 -75 43 -27 16 -68 38 -90 48 -22 10 -57 33
-79 50 -21 17 -43 31 -49 31 -10 0 -242 135 -267 155 -8 7 -26 16 -40 20 -14
4 -32 13 -40 20 -8 7 -42 27 -75 45 -33 17 -91 50 -130 72 -79 46 -154 58
-215 34z m113 -103 c58 -38 79 -51 97 -60 8 -4 70 -40 138 -80 67 -40 125 -73
127 -73 3 0 35 -18 71 -41 37 -22 77 -45 88 -50 12 -5 41 -23 66 -39 25 -17
61 -37 80 -46 19 -9 46 -24 60 -34 14 -10 61 -38 105 -62 44 -25 121 -69 170
-98 50 -29 110 -64 135 -78 25 -13 83 -46 130 -74 47 -27 92 -53 100 -58 155
-91 381 -219 393 -223 4 -1 7 -477 7 -1057 0 -993 -1 -1055 -17 -1064 -10 -6
-51 -29 -93 -52 -41 -23 -138 -78 -214 -123 -76 -44 -140 -81 -142 -81 -3 0
-121 -68 -174 -101 -8 -5 -64 -37 -124 -71 -59 -35 -129 -75 -155 -90 -25 -16
-53 -31 -61 -35 -14 -6 -194 -110 -230 -132 -8 -5 -82 -49 -165 -96 -183 -106
-193 -112 -328 -192 -60 -35 -112 -63 -117 -61 -4 2 -45 27 -91 56 -77 48
-181 109 -284 166 -22 12 -59 34 -82 49 -24 15 -45 27 -47 27 -2 0 -48 26
-103 58 -54 32 -105 61 -113 65 -8 4 -28 16 -45 26 -33 21 -75 45 -320 186
-93 54 -186 108 -205 121 -19 13 -38 24 -43 24 -4 0 -47 24 -96 53 -122 72
-140 82 -266 152 l-110 62 -3 1050 -2 1050 52 29 c29 16 60 32 68 37 8 4 33
18 55 31 100 58 434 251 470 271 22 13 98 57 169 99 70 42 130 76 133 76 3 0
33 17 67 39 34 21 84 50 111 65 28 14 57 30 65 36 45 28 220 130 224 130 10 0
375 220 381 230 10 15 22 12 68 -17z"/>
<path d="M4530 5999 c-9 -16 -8 -24 4 -38 22 -24 23 -151 2 -151 -20 0 -46 39
-46 68 0 20 -4 23 -32 20 -26 -2 -34 -8 -36 -26 -4 -30 12 -49 49 -57 16 -4
40 -21 54 -39 21 -28 25 -44 25 -104 0 -78 -10 -94 -34 -57 -9 14 -32 39 -51
57 -19 17 -35 39 -35 48 0 9 -11 27 -24 39 -20 19 -28 21 -45 12 -37 -20 -21
-81 21 -81 19 0 33 -12 88 -78 19 -23 42 -42 51 -42 10 0 19 -12 23 -31 10
-49 7 -134 -4 -145 -8 -8 -8 -19 0 -38 16 -43 13 -126 -5 -126 -8 0 -15 6 -15
12 0 7 -35 47 -77 89 -43 41 -100 101 -128 132 -27 31 -58 56 -68 57 -14 0
-17 5 -12 20 5 17 2 20 -20 20 -24 0 -26 -3 -23 -36 3 -31 8 -38 35 -48 31
-11 143 -109 143 -126 0 -4 23 -29 51 -56 29 -27 59 -57 68 -66 8 -10 23 -18
33 -18 12 0 20 -16 31 -62 10 -39 16 -52 16 -35 1 21 25 53 96 128 52 55 93
105 89 110 -3 5 -19 -3 -36 -18 -55 -50 -108 -107 -108 -115 0 -12 -28 -9 -32
3 -2 6 -1 35 2 64 6 52 7 55 130 175 69 67 137 126 153 132 30 11 37 47 12 68
-19 16 -43 6 -55 -22 -12 -30 -225 -250 -234 -241 -3 3 -6 31 -6 62 l0 56 85
82 c47 46 101 90 120 98 38 15 46 43 19 65 -21 18 -66 2 -74 -26 -8 -32 -137
-167 -146 -153 -4 7 -6 44 -5 83 2 67 4 72 39 106 20 19 53 43 74 52 43 19 47
36 18 63 -17 15 -24 16 -45 7 -14 -6 -25 -20 -25 -29 -1 -10 -11 -31 -24 -47
-22 -27 -25 -27 -34 -10 -14 28 0 128 21 149 10 10 16 24 13 32 -3 8 -6 19 -6
24 0 5 -16 9 -35 9 -25 0 -37 -6 -45 -21z"/>
<path d="M4272 5654 c-33 -23 -27 -43 21 -63 23 -11 54 -32 69 -48 15 -15 49
-52 76 -80 47 -50 82 -68 82 -40 0 13 -97 117 -110 117 -4 0 -16 12 -26 28
-10 15 -24 33 -31 40 -7 7 -13 20 -13 27 0 8 -9 19 -19 25 -25 13 -22 13 -49
-6z"/>
<path d="M4910 5548 c-13 -31 -33 -62 -45 -70 -16 -12 2 -20 22 -10 10 5 32
14 48 19 36 10 46 47 18 68 -25 20 -32 18 -43 -7z"/>
<path d="M4120 5425 c-23 -24 -23 -25 -5 -45 10 -11 27 -20 38 -20 11 0 28 -7
38 -16 11 -10 19 -12 24 -5 3 6 -1 14 -9 17 -9 4 -16 18 -16 34 0 23 -26 60
-42 60 -2 0 -15 -11 -28 -25z"/>
<path d="M4841 5399 c-32 -20 -33 -21 -27 -72 l6 -52 -56 -45 c-30 -25 -93
-84 -140 -132 -80 -84 -84 -90 -84 -133 0 -25 -3 -45 -8 -45 -4 0 -52 45 -107
100 -54 55 -102 100 -107 100 -4 0 -8 20 -8 43 0 54 -22 77 -72 77 -47 0 -93
-49 -83 -89 11 -45 34 -61 84 -60 l46 1 127 -127 127 -127 -1 -151 c0 -84 3
-169 7 -189 4 -21 4 -45 1 -55 -6 -14 -11 -12 -39 15 -28 27 -41 32 -81 32
-48 0 -49 1 -166 113 -96 91 -118 118 -119 142 -2 53 -12 73 -44 88 -35 18
-52 14 -89 -21 -60 -55 -24 -128 59 -125 l45 2 117 -122 c117 -120 118 -121
167 -124 27 -1 52 -2 56 -2 3 -1 25 -17 47 -38 l41 -36 0 -110 c0 -100 -2
-109 -20 -114 -11 -3 -20 -8 -20 -12 0 -3 -90 -4 -200 -3 -122 2 -200 0 -200
-6 0 -5 -16 -24 -36 -43 -20 -19 -50 -48 -67 -65 -40 -39 -68 -46 -129 -33
-37 8 -52 8 -63 -1 -21 -17 -19 -47 4 -60 28 -14 38 -13 60 11 17 18 27 21 63
16 42 -6 44 -5 100 54 54 58 57 60 68 39 18 -34 -2 -72 -72 -139 -58 -55 -108
-79 -108 -51 0 14 -33 13 -48 -2 -15 -15 -15 -51 0 -66 14 -14 48 -16 48 -3 0
5 13 11 28 14 16 3 50 29 80 61 29 31 57 56 63 56 5 0 9 -21 9 -46 0 -40 -5
-51 -39 -85 -25 -25 -48 -39 -64 -39 -16 0 -31 -8 -37 -19 -15 -29 -12 -40 14
-52 32 -15 66 4 66 36 0 16 16 39 45 67 44 42 45 44 45 106 0 37 6 75 15 93 9
16 13 35 9 41 -12 18 -13 62 -3 74 6 7 59 12 152 12 78 1 161 4 184 8 35 5 43
3 52 -15 14 -26 38 -27 45 -3 3 9 5 93 4 186 -2 155 0 169 17 182 29 21 53 17
72 -13 45 -74 44 -73 190 -73 l133 0 81 -77 81 -78 87 -7 c47 -4 101 -8 120
-10 42 -4 67 25 39 46 -10 7 -18 18 -18 25 0 16 -15 14 -30 -4 -9 -11 -34 -15
-100 -15 l-87 0 -74 75 -74 75 -141 0 c-114 0 -144 3 -154 15 -7 8 -19 15 -26
15 -17 0 -18 16 -3 26 6 3 82 6 168 4 86 -1 221 -1 301 0 123 2 148 -1 159
-14 35 -42 96 2 70 50 -14 27 -41 31 -59 9 -10 -12 -36 -15 -116 -15 -56 0
-105 4 -108 9 -3 4 -23 4 -44 -2 -22 -6 -47 -7 -56 -4 -14 6 2 26 80 102 88
86 100 95 135 95 21 0 41 -4 44 -10 3 -5 24 -10 46 -10 39 0 40 1 37 33 -2 18
-8 32 -15 31 -7 -1 -46 -2 -86 -2 l-74 -2 -119 -120 c-108 -108 -122 -120
-155 -120 -20 0 -38 3 -41 6 -4 3 65 77 152 165 149 148 162 159 196 159 21 0
45 -7 54 -15 20 -18 46 -11 60 16 8 14 5 23 -12 39 -26 24 -44 26 -52 5 -4
-10 -20 -15 -50 -15 -44 0 -45 -1 -225 -179 -99 -98 -189 -181 -200 -184 -11
-3 -25 1 -31 8 -9 11 -17 10 -43 -5 -32 -19 -64 -14 -56 8 2 6 61 69 132 140
125 128 128 130 165 125 30 -4 41 0 60 20 19 20 22 31 17 61 -9 47 -49 80 -88
72 -40 -8 -67 -44 -66 -86 1 -32 -10 -47 -144 -182 -81 -81 -148 -144 -150
-140 -2 4 -3 114 -2 245 l1 237 137 134 c130 127 139 134 178 134 47 1 68 21
68 67 1 33 -22 67 -56 84 -29 15 -33 14 -72 -10z"/>
<path d="M5063 5347 c-4 -8 -16 -16 -25 -20 -26 -9 -22 -20 14 -40 32 -18 33
-18 50 3 16 20 16 23 2 46 -18 27 -29 30 -41 11z"/>
<path d="M4055 5322 c-12 -12 -4 -43 13 -49 9 -3 25 -15 34 -27 l16 -21 7 27
c11 44 3 62 -32 69 -18 3 -35 4 -38 1z"/>
<path d="M4002 5217 l-23 -25 27 -21 c56 -44 88 -10 41 44 l-22 26 -23 -24z"/>
<path d="M5095 5208 c-22 -5 -51 -12 -65 -14 -25 -5 -358 -331 -395 -387 -42
-65 4 -29 167 131 249 244 247 242 267 242 10 0 24 -7 31 -15 26 -31 96 -7 89
31 -5 22 -35 26 -94 12z"/>
<path d="M4890 5190 c0 -5 -5 -10 -11 -10 -14 0 -239 -224 -239 -238 0 -6 -6
-13 -12 -15 -10 -4 -9 -6 1 -6 8 -1 66 50 128 112 118 115 162 167 144 167 -6
0 -11 -4 -11 -10z"/>
<path d="M4080 5146 c0 -3 10 -21 21 -41 12 -20 20 -38 17 -40 -2 -2 -39 5
-82 15 -84 21 -116 16 -116 -20 0 -32 28 -39 125 -29 89 9 145 5 145 -11 0
-11 280 -290 291 -290 26 0 -1 37 -99 136 -60 61 -126 123 -147 140 -57 43
-105 93 -115 120 -5 13 -16 24 -25 24 -8 0 -15 -2 -15 -4z"/>
<path d="M5165 5089 c-22 -6 -54 -7 -72 -4 -36 6 -87 -14 -96 -40 -6 -13 8
-15 93 -17 55 -1 110 -2 123 -2 19 -1 22 4 22 34 0 39 -9 43 -70 29z"/>
<path d="M4507 5054 c-11 -11 3 -24 18 -18 8 4 12 10 9 15 -6 11 -18 12 -27 3z"/>
<path d="M3877 4963 c-14 -14 -7 -43 11 -43 10 0 23 -5 29 -11 8 -8 17 -8 31
0 11 6 55 11 97 11 l76 0 167 -170 c92 -93 175 -170 185 -170 30 0 8 26 -163
199 l-162 162 -90 -2 c-75 -1 -93 1 -103 15 -12 16 -65 22 -78 9z"/>
<path d="M5210 4956 c-7 -9 -22 -16 -34 -16 -21 0 -41 -17 -74 -62 -24 -30 5
-28 37 4 24 24 40 31 67 30 19 -1 38 -3 42 -6 4 -2 17 0 30 5 17 6 22 15 20
31 -2 18 -10 24 -39 26 -23 2 -40 -2 -49 -12z"/>
<path d="M3845 4860 c-20 -22 -15 -44 12 -58 13 -6 27 -3 50 13 l32 22 -29 22
c-36 26 -42 26 -65 1z"/>
<path d="M3812 4716 c-12 -6 -21 -18 -20 -26 4 -18 54 -26 71 -12 7 6 29 13
50 17 64 12 39 36 -36 34 -23 -1 -52 -7 -65 -13z"/>
<path d="M4827 4600 c-38 -39 -64 -70 -57 -70 11 0 140 122 140 134 0 15 -20
0 -83 -64z"/>
<path d="M4043 4603 c12 -15 52 -57 88 -93 36 -36 64 -71 61 -78 -9 -29 -47
-8 -121 68 -43 44 -81 80 -86 80 -5 0 -16 6 -24 14 -9 8 -50 16 -99 19 -75 5
-83 3 -93 -15 -12 -23 0 -43 31 -51 13 -3 24 1 30 14 8 15 22 19 59 19 46 0
50 -2 135 -84 l87 -83 65 -6 c68 -5 92 -16 79 -37 -5 -9 -32 -10 -94 -5 -47 3
-160 6 -251 7 l-165 0 -3 -30 -3 -31 145 6 c104 4 149 3 159 -6 11 -8 22 -9
41 -1 15 5 74 10 131 10 108 0 126 -6 140 -49 3 -10 28 -33 55 -52 28 -19 50
-37 50 -41 0 -5 9 -8 21 -8 l20 0 -21 30 c-11 16 -57 64 -101 107 -44 43 -117
116 -162 162 -84 86 -172 161 -188 161 -5 0 1 -12 14 -27z"/>
<path d="M5170 4591 c-8 -10 -24 -27 -34 -39 -26 -30 -5 -28 28 3 21 20 38 25
77 25 28 0 60 -7 74 -16 36 -23 69 -15 73 19 l3 27 -103 -1 c-85 -1 -106 -4
-118 -18z"/>
<path d="M3747 4513 c-4 -3 -7 -19 -7 -34 0 -22 6 -30 26 -35 14 -4 30 -2 37
5 16 16 174 15 180 -1 2 -7 7 -10 11 -6 4 3 -1 16 -11 27 -15 18 -29 21 -94
21 -59 0 -78 3 -83 15 -5 15 -47 21 -59 8z"/>
<path d="M5100 4406 c0 -3 17 -22 37 -42 36 -36 38 -36 107 -32 47 3 74 0 81
-8 16 -19 60 -25 80 -10 14 10 15 17 6 33 -10 20 -17 21 -129 16 -93 -5 -121
-3 -132 8 -27 25 -50 42 -50 35z"/>
<path d="M4662 4272 c-82 -6 -81 -8 162 -252 71 -72 132 -130 136 -130 3 0 13
-11 20 -25 7 -13 27 -34 44 -46 17 -12 47 -43 66 -70 19 -27 40 -49 46 -49 7
0 14 -9 17 -21 8 -31 52 -22 52 11 0 18 -9 29 -33 41 -17 9 -114 99 -215 199
-100 100 -206 204 -234 230 -34 31 -51 54 -47 63 10 27 65 -6 137 -80 118
-123 347 -348 357 -351 35 -12 -14 44 -190 219 -167 167 -221 229 -197 229 15
0 72 -37 94 -61 15 -17 88 -91 161 -165 131 -131 135 -134 177 -134 24 0 56
-5 71 -11 41 -15 74 -4 74 25 0 25 -44 53 -55 36 -4 -6 -35 -10 -69 -10 l-64
0 -146 146 c-80 80 -146 151 -146 156 0 7 12 8 33 3 17 -4 39 -6 47 -5 69 7
76 4 136 -58 l58 -62 84 0 c61 0 87 -4 98 -15 19 -19 48 -19 63 -1 19 23 -14
69 -39 56 -10 -6 -57 -10 -103 -10 l-85 0 -78 75 -78 74 -155 -2 c-86 -1 -175
-3 -199 -5z"/>
<path d="M4028 4170 c-56 -55 -99 -90 -112 -90 -12 0 -28 -4 -36 -10 -12 -8
-12 -10 3 -16 41 -16 82 6 170 92 79 78 104 114 77 114 -6 0 -51 -40 -102 -90z"/>
<path d="M4185 4250 c3 -5 28 -10 56 -10 27 0 49 5 49 10 0 6 -25 10 -56 10
-34 0 -53 -4 -49 -10z"/>
<path d="M3752 4238 c-7 -7 -12 -24 -12 -39 0 -32 32 -48 56 -28 8 7 36 12 62
11 81 -3 122 7 122 29 0 10 5 19 10 19 6 0 10 5 10 11 0 8 -4 8 -13 1 -19 -16
-174 -19 -189 -4 -15 15 -31 15 -46 0z"/>
<path d="M5000 4162 c0 -4 39 -47 88 -95 l87 -87 82 0 c55 0 83 4 87 13 5 10
7 10 12 0 8 -18 34 -16 34 1 0 41 -39 62 -65 37 -8 -8 -89 -15 -131 -12 -6 1
-46 35 -89 76 -71 67 -105 89 -105 67z"/>
<path d="M3764 4102 c-16 -25 0 -62 26 -62 58 0 73 46 24 69 -33 15 -37 14
-50 -7z"/>
<path d="M4194 4037 c-3 -10 -3 -34 1 -55 l8 -37 9 44 c7 29 6 47 -1 54 -7 7
-12 5 -17 -6z"/>
<path d="M4532 3993 c-34 -29 -36 -64 -8 -105 21 -32 24 -48 27 -151 2 -64 0
-119 -4 -123 -9 -9 -40 18 -87 78 -37 46 -38 50 -45 154 -8 119 -21 144 -75
144 -34 0 -80 -38 -80 -65 0 -43 40 -84 83 -85 27 0 27 -1 27 -68 l0 -68 65
-61 c36 -34 65 -66 65 -72 0 -6 9 -11 19 -11 10 0 22 -8 25 -17 4 -10 6 -181
5 -381 -1 -200 1 -366 5 -369 3 -4 18 -1 32 6 l26 11 -3 384 -3 383 45 46 c81
81 147 107 183 72 51 -52 135 -24 135 45 0 73 -90 98 -139 38 -13 -17 -27 -22
-54 -20 -46 3 -66 -8 -117 -63 -23 -25 -45 -42 -50 -40 -4 3 -8 49 -8 101 1
86 3 98 25 121 66 71 -21 178 -94 116z"/>
<path d="M4197 3889 c-4 -13 -7 -60 -7 -105 0 -75 -2 -82 -27 -106 -16 -14
-43 -33 -61 -42 -37 -19 -41 -50 -9 -70 22 -14 47 1 65 38 7 14 24 38 38 53
22 24 24 34 23 122 0 53 -4 105 -8 115 -7 18 -8 18 -14 -5z"/>
<path d="M5222 3814 c-29 -20 -28 -32 5 -45 40 -15 73 -4 73 25 0 37 -40 47
-78 20z"/>
<path d="M4286 3793 c-10 -10 -7 -203 4 -203 20 0 28 39 23 118 -6 78 -12 100
-27 85z"/>
<path d="M5067 3654 c-13 -13 -7 -65 8 -70 23 -9 46 16 43 45 -3 26 -35 41
-51 25z"/>
<path d="M4981 3606 c-21 -25 -10 -61 19 -61 22 0 25 4 25 35 0 38 -23 52 -44
26z"/>
<path d="M4212 3578 c-31 -15 -28 -71 4 -76 26 -4 56 30 52 60 -3 26 -23 32
-56 16z"/>
<path d="M4411 3570 c-2 -44 -16 -56 -45 -41 -35 19 -56 8 -56 -29 0 -27 3
-30 29 -28 17 1 38 -5 49 -15 23 -21 32 -21 48 1 12 16 14 16 27 -2 9 -12 20
-17 31 -13 23 9 20 27 -4 27 -30 0 -60 36 -70 83 -5 28 -8 33 -9 17z"/>
<path d="M4890 3555 c-18 -22 2 -65 30 -65 18 0 21 5 18 37 -3 42 -26 55 -48
28z"/>
<path d="M4794 3526 c-11 -29 1 -51 29 -54 23 -3 27 0 27 20 0 41 -44 66 -56
34z"/>
<path d="M4720 3520 c0 -6 -16 -18 -35 -26 -59 -24 -62 -68 -3 -46 24 9 35 9
45 0 21 -17 35 3 31 43 -2 23 -9 35 -20 37 -10 2 -18 -2 -18 -8z"/>
<path d="M1035 1590 c-35 -38 -7 -87 43 -75 33 7 58 -15 48 -41 -5 -14 -16
-16 -61 -10 -52 6 -55 5 -55 -15 0 -20 4 -21 49 -15 61 8 71 -3 62 -66 -10
-62 6 -79 64 -69 l40 6 0 64 0 64 190 -1 c105 -1 194 -2 198 -2 4 0 6 -28 5
-62 l-3 -63 44 -3 c54 -4 66 7 66 61 0 41 1 42 36 45 46 4 62 -14 50 -56 -12
-41 4 -54 61 -50 l43 3 -3 63 -4 62 146 2 c80 1 154 2 164 2 14 1 17 -8 17
-64 l0 -65 130 0 c129 0 130 0 133 24 6 37 -12 45 -93 42 l-75 -2 0 27 c0 26
1 27 53 21 29 -3 60 -1 69 4 12 7 491 13 686 9 11 0 13 -15 10 -62 l-3 -63
135 0 c134 0 135 0 138 24 6 37 -13 46 -91 46 -68 0 -72 1 -75 24 -4 24 -3 24
55 18 35 -4 64 -2 70 4 7 7 220 14 331 10 11 -1 13 -16 10 -63 l-3 -63 55 0
55 0 0 50 c0 38 4 50 17 53 12 2 20 -8 29 -40 7 -24 17 -48 23 -55 9 -10 63
-17 104 -14 22 2 13 37 -18 66 -19 18 -30 38 -28 50 3 19 10 20 178 18 l175
-2 3 -66 3 -65 42 0 c60 0 72 10 59 49 -12 34 -7 61 12 61 21 0 33 -15 47 -60
13 -43 16 -45 59 -51 79 -11 90 8 39 71 -43 54 -35 75 28 66 25 -3 99 -6 164
-6 l118 0 19 -42 c24 -54 46 -73 99 -87 49 -13 126 0 157 27 10 9 27 36 38 60
l19 42 134 2 c74 0 141 1 148 2 8 1 13 -20 15 -66 l3 -68 42 0 c61 0 72 10 58
50 -12 35 -2 60 25 60 16 0 34 -31 34 -57 0 -11 6 -26 13 -35 16 -21 91 -30
114 -13 16 12 14 16 -20 55 -66 72 -59 76 143 71 96 -2 179 -5 183 -8 4 -3 7
-30 5 -61 l-3 -57 125 0 125 0 3 29 c5 41 -11 51 -86 51 -65 0 -67 1 -67 25
l0 25 220 -2 220 -3 3 -65 3 -66 132 3 132 3 3 33 c4 36 9 34 -93 36 -63 1
-70 3 -70 21 0 18 7 20 55 20 30 0 60 3 65 7 6 3 100 8 210 9 153 2 209 0 240
-11 57 -20 68 -30 54 -46 -17 -21 -57 -17 -71 6 -16 25 -85 28 -95 4 -11 -28
30 -68 85 -83 93 -25 178 17 191 94 l6 34 170 4 c139 3 180 0 225 -14 41 -12
55 -22 55 -35 0 -28 -50 -31 -67 -5 -16 26 -85 30 -95 5 -11 -28 30 -68 85
-83 103 -28 192 25 192 114 0 42 -1 43 -37 48 -55 8 -118 23 -132 31 -9 6 -9
11 0 22 16 20 46 17 70 -7 14 -14 30 -19 52 -17 27 3 32 7 29 27 -4 35 -27 57
-79 75 -40 14 -49 14 -91 0 -60 -20 -74 -34 -87 -87 -10 -41 -11 -42 -45 -37
-49 7 -182 5 -261 -5 -46 -5 -68 -4 -73 4 -4 6 -18 11 -32 11 -36 0 -64 17
-58 35 9 21 51 18 74 -5 23 -23 62 -26 78 -7 28 34 -56 102 -123 100 -37 -1
-105 -32 -116 -53 -4 -8 -11 -32 -14 -53 -5 -31 -10 -37 -23 -32 -36 13 -179
17 -231 6 -37 -8 -58 -8 -65 -1 -5 5 -41 10 -78 10 -61 0 -68 2 -68 20 0 12 7
20 18 21 9 1 46 2 82 2 l65 2 3 32 c4 40 -3 42 -148 40 l-115 -2 -5 -65 -5
-65 -40 5 c-22 3 -92 5 -155 5 -63 0 -142 -2 -175 -5 l-60 -5 -1 51 c-2 77 -6
84 -58 84 -51 0 -61 -15 -51 -72 4 -21 1 -40 -7 -51 -13 -17 -19 -18 -58 -7
-26 7 -87 11 -145 9 l-99 -4 -7 37 c-11 71 -47 88 -184 85 l-90 -2 -5 -65 c-5
-62 -6 -65 -30 -63 -128 12 -181 13 -218 5 -40 -10 -44 -9 -59 16 -50 83 -58
91 -100 103 -53 14 -118 7 -152 -19 -14 -10 -38 -39 -52 -63 -19 -32 -31 -43
-45 -40 -10 2 -74 4 -141 4 l-123 0 0 31 c0 71 -46 94 -190 92 l-85 -1 -5 -65
c-5 -63 -6 -65 -30 -61 -14 1 -79 3 -146 4 l-121 1 -17 48 c-12 35 -25 52 -44
60 -40 16 -220 20 -229 5 -5 -7 -8 -37 -8 -67 0 -55 0 -55 -30 -53 -16 2 -64
6 -106 9 -44 4 -98 2 -129 -5 -41 -9 -56 -9 -68 1 -9 8 -36 12 -73 10 -54 -4
-59 -2 -59 17 0 20 6 21 79 21 72 0 79 2 84 22 3 12 2 29 -3 39 -9 15 -24 17
-127 16 -65 -1 -124 -6 -131 -10 -9 -6 -11 -23 -7 -55 8 -68 -1 -77 -66 -62
-38 8 -130 10 -309 6 -140 -2 -262 -5 -270 -5 -8 0 -50 2 -92 5 -68 5 -78 8
-78 24 0 17 9 20 76 22 60 2 79 7 88 20 8 13 8 23 0 35 -10 16 -28 18 -130 18
-71 1 -122 -3 -126 -10 -4 -5 -5 -30 -2 -55 7 -66 -2 -75 -65 -61 -67 14 -140
14 -198 0 -56 -15 -66 -4 -59 61 8 61 -2 72 -55 68 l-44 -3 0 -49 c0 -43 -3
-50 -25 -58 -13 -5 -35 -6 -49 -3 -22 6 -23 10 -18 49 8 53 -4 66 -59 66 -49
0 -58 -13 -49 -75 9 -55 -8 -71 -62 -56 -54 15 -160 13 -244 -4 -78 -17 -93
-12 -87 26 2 20 9 24 38 24 44 0 60 10 60 39 0 46 -19 55 -87 44 -42 -7 -83
-8 -123 -1 -51 8 -62 7 -75 -7z m2849 -66 c20 -8 21 -38 1 -54 -23 -19 -65 -4
-65 24 0 12 3 26 7 29 8 9 36 9 57 1z m605 -8 c18 -21 -3 -56 -34 -56 -23 0
-55 23 -55 40 0 27 70 39 89 16z m598 -9 c4 -6 8 -33 10 -59 3 -53 -14 -78
-52 -78 -47 0 -61 41 -46 133 4 24 74 27 88 4z m602 9 c24 -29 -16 -65 -58
-51 -45 14 -30 65 19 65 15 0 33 -6 39 -14z"/>
</g>
</svg>
